<svg xmlns="http://www.w3.org/2000/svg" viewBox="0 0 64 64"><defs><linearGradient id="bg" x1="0" y1="0" x2="0" y2="1"><stop offset="0" stop-color="#2b2418"/><stop offset="1" stop-color="#0c0a07"/></linearGradient><radialGradient id="glow" cx="32" cy="0" r="40" gradientTransform="matrix(1.2 0 0 .8 -6.4 0)" gradientUnits="userSpaceOnUse"><stop offset="0" stop-color="#ffd282" stop-opacity=".45"/><stop offset=".6" stop-color="#ffd282" stop-opacity="0"/></radialGradient></defs><rect width="64" height="64" rx="14" fill="url(#bg)"/><rect width="64" height="64" rx="14" fill="url(#glow)"/><g transform="translate(14 14) scale(1.5)" fill="none" stroke="#e0ac4a" stroke-width="1.8" stroke-linecap="round" stroke-linejoin="round"><path d="M12 7v14"/><path d="M3 18a1 1 0 0 1-1-1V4a1 1 0 0 1 1-1h5a4 4 0 0 1 4 4 4 4 0 0 1 4-4h5a1 1 0 0 1 1 1v13a1 1 0 0 1-1 1h-6a3 3 0 0 0-3 3 3 3 0 0 0-3-3z"/></g></svg>
